<svg version="1.1" viewBox="0.0 0.0 960.0 960.0" fill="none" stroke="none" stroke-linecap="square" stroke-miterlimit="10" xmlns:xlink="http://www.w3.org/1999/xlink" xmlns="http://www.w3.org/2000/svg"><clipPath id="p.0"><path d="m0 0l960.0 0l0 960.0l-960.0 0l0 -960.0z" clip-rule="nonzero"/></clipPath><g clip-path="url(#p.0)"><path fill="#000000" fill-opacity="0.0" d="m0 0l960.0 0l0 960.0l-960.0 0z" fill-rule="evenodd"/><path fill="#00e054" d="m-0.002624672 0l960.0 0l0 960.0l-960.0 0z" fill-rule="evenodd"/><path stroke="#00e054" stroke-width="1.0" stroke-linejoin="round" stroke-linecap="butt" d="m-0.002624672 0l960.0 0l0 960.0l-960.0 0z" fill-rule="evenodd"/><path fill="#ffffff" d="m573.0442 437.59012l0 0c0 -21.995697 17.647705 -39.82675 39.417297 -39.82675l0 0c10.454102 0 20.480042 4.1960144 27.872253 11.664978c7.392151 7.4689636 11.545044 17.59906 11.545044 28.161774l0 0c0 21.995728 -17.647705 39.826782 -39.417297 39.826782l0 0c-21.769592 0 -39.417297 -17.831055 -39.417297 -39.826782z" fill-rule="evenodd"/><path stroke="#ffffff" stroke-width="3.0866141732283463" stroke-linejoin="round" stroke-linecap="butt" d="m573.0442 437.59012l0 0c0 -21.995697 17.647705 -39.82675 39.417297 -39.82675l0 0c10.454102 0 20.480042 4.1960144 27.872253 11.664978c7.392151 7.4689636 11.545044 17.59906 11.545044 28.161774l0 0c0 21.995728 -17.647705 39.826782 -39.417297 39.826782l0 0c-21.769592 0 -39.417297 -17.831055 -39.417297 -39.826782z" fill-rule="evenodd"/><path fill="#ffffff" d="m222.83464 317.7638l48.000015 0l0 288.0l-48.000015 0z" fill-rule="evenodd"/><path stroke="#ffffff" stroke-width="1.0" stroke-linejoin="round" stroke-linecap="butt" d="m222.83464 317.7638l48.000015 0l0 288.0l-48.000015 0z" fill-rule="evenodd"/><path fill="#ffffff" d="m683.8793 317.7638l48.0 0l0 288.0l-48.0 0z" fill-rule="evenodd"/><path stroke="#ffffff" stroke-width="1.0" stroke-linejoin="round" stroke-linecap="butt" d="m683.8793 317.7638l48.0 0l0 288.0l-48.0 0z" fill-rule="evenodd"/><path fill="#ffffff" d="m736.6667 317.7638l0 48.0l-513.8268 0l0 -48.0z" fill-rule="evenodd"/><path stroke="#ffffff" stroke-width="1.0" stroke-linejoin="round" stroke-linecap="butt" d="m736.6667 317.7638l0 48.0l-513.8268 0l0 -48.0z" fill-rule="evenodd"/><path fill="#ffffff" d="m695.2854 341.7644l41.57483 -23.968506l111.02362 192.59842l-41.57483 23.968475z" fill-rule="evenodd"/><path stroke="#ffffff" stroke-width="1.0" stroke-linejoin="round" stroke-linecap="butt" d="m695.2854 341.7644l41.57483 -23.968506l111.02362 192.59842l-41.57483 23.968475z" fill-rule="evenodd"/></g></svg>